<svg width="1920" height="1080" viewBox="0 0 1920 1080" fill="none" xmlns="http://www.w3.org/2000/svg">
<g clip-path="url(#clip0_1_14586)">
<g clip-path="url(#clip1_1_14586)">
<path d="M1278.25 477.279C1264.54 463.547 1247.96 456.67 1228.5 456.67C1209.03 456.67 1192.46 463.526 1178.75 477.279C1165.04 491.012 1158.17 507.68 1158.17 527.262C1158.17 546.844 1163.7 563.743 1174.75 577.245C1185.8 590.768 1200.05 597.519 1217.49 597.519C1224.29 597.519 1230.13 596.449 1235.03 594.332C1239.93 592.214 1243.59 589.761 1246.04 586.994C1248.49 584.226 1250.39 580.977 1251.77 577.245C1253.15 573.513 1253.95 570.599 1254.16 568.46C1254.37 566.342 1254.47 564.309 1254.47 562.401H1263.41V597.54H1298.8V527.262C1298.8 507.68 1291.94 491.012 1278.23 477.279H1278.25ZM1253.22 551.855C1246.42 558.669 1238.17 562.086 1228.5 562.086C1218.83 562.086 1210.58 558.69 1203.78 551.855C1196.98 545.041 1193.57 536.802 1193.57 527.094C1193.57 517.387 1196.96 509.148 1203.78 502.334C1210.58 495.52 1218.81 492.102 1228.5 492.102C1238.19 492.102 1246.42 495.52 1253.22 502.334C1260.02 509.148 1263.43 517.408 1263.43 527.094C1263.43 536.781 1260.02 545.041 1253.22 551.855ZM644.082 456.67C624.743 456.67 608.208 463.526 594.498 477.279C580.789 491.012 573.924 507.68 573.924 527.262V644H609.317V562.401H617.919C617.919 564.309 618.087 566.342 618.401 568.46C618.715 570.599 619.573 573.513 620.954 577.245C622.336 580.977 624.199 584.226 626.543 586.994C628.887 589.761 632.55 592.214 637.552 594.332C642.554 596.47 648.331 597.519 654.924 597.519C672.359 597.519 686.655 590.768 697.811 577.245C708.966 563.722 714.555 547.054 714.555 527.262C714.555 507.47 707.648 491.012 693.834 477.279C680.02 463.547 663.422 456.67 644.082 456.67ZM668.801 551.855C661.894 558.669 653.647 562.086 644.082 562.086C634.517 562.086 626.271 558.69 619.364 551.855C612.457 545.041 609.003 536.802 609.003 527.094C609.003 517.387 612.457 509.148 619.364 502.334C626.271 495.52 634.517 492.102 644.082 492.102C653.647 492.102 661.894 495.52 668.801 502.334C675.708 509.148 679.162 517.408 679.162 527.094C679.162 536.781 675.708 545.041 668.801 551.855ZM535.077 477.279C521.368 463.547 504.791 456.67 485.326 456.67C465.861 456.67 449.284 463.526 435.575 477.279C421.865 491.012 415 507.68 415 527.262C415 546.844 420.526 563.743 431.577 577.245C442.628 590.768 456.882 597.519 474.317 597.519C481.119 597.519 486.958 596.449 491.856 594.332C496.733 592.214 500.417 589.761 502.865 586.994C505.314 584.226 507.219 580.977 508.6 577.245C509.982 573.513 510.777 570.599 510.986 568.46C511.196 566.342 511.3 564.309 511.3 562.401H520.238V597.54H555.631V527.262C555.631 507.68 548.766 491.012 535.056 477.279H535.077ZM510.024 551.855C503.221 558.669 494.975 562.086 485.305 562.086C475.635 562.086 467.389 558.69 460.586 551.855C453.784 545.041 450.372 536.802 450.372 527.094C450.372 517.387 453.763 509.148 460.586 502.334C467.389 495.52 475.614 492.102 485.305 492.102C494.996 492.102 503.221 495.52 510.024 502.334C516.826 509.148 520.238 517.408 520.238 527.094C520.238 536.781 516.826 545.041 510.024 551.855ZM1523.2 492.123V456.67H1496.09V410H1460.7V527.262C1460.7 547.284 1466.39 563.994 1477.76 577.412C1489.12 590.831 1504.28 597.54 1523.2 597.54V562.086C1514.05 562.086 1507.25 558.837 1502.79 552.337C1498.33 545.838 1496.09 537.389 1496.09 526.948V492.123H1523.2ZM1381.81 492.123C1387.99 492.123 1393.72 493.675 1399.04 496.757C1404.36 499.839 1408.6 504.053 1411.79 509.378H1449.73C1445.69 494.052 1437.4 481.431 1424.85 471.514C1412.31 461.618 1397.95 456.67 1381.79 456.67C1362.22 456.67 1345.6 463.526 1331.87 477.279C1318.14 491.033 1311.3 507.617 1311.3 527.115C1311.3 546.614 1318.16 563.219 1331.87 576.951C1345.58 590.684 1362.22 597.561 1381.79 597.561C1397.95 597.54 1412.29 592.592 1424.85 582.696C1437.38 572.8 1445.67 560.178 1449.73 544.852H1411.79C1408.6 550.178 1404.33 554.392 1399.04 557.474C1393.72 560.556 1387.99 562.107 1381.81 562.107C1372.04 562.107 1363.73 558.711 1356.95 551.876C1350.15 545.062 1346.73 536.823 1346.73 527.115C1346.73 517.408 1350.12 509.169 1356.95 502.355C1363.75 495.541 1372.04 492.123 1381.81 492.123ZM1084.67 527.262V562.254H1070.45C1061.31 562.254 1054.5 558.837 1050.05 552.337C1045.59 545.838 1043.35 537.389 1043.35 526.948V492.123H1070.45V456.67H1043.35V410H1007.96V527.262C1007.96 547.284 1013.65 563.994 1025.01 577.412C1035.33 589.573 1048.67 597.54 1065.28 597.54H1120.06V527.262C1120.06 517.471 1123.45 509.169 1130.27 502.355C1137.08 495.541 1145.26 492.123 1154.82 492.123V456.67C1135.48 456.67 1118.95 463.526 1105.24 477.279C1091.53 491.012 1084.67 507.68 1084.67 527.262ZM797.522 456.67C778.183 456.67 761.648 463.526 747.939 477.279C734.229 491.012 727.364 507.68 727.364 527.262V644H762.757V562.401H771.36C771.36 564.309 771.527 566.342 771.841 568.46C772.155 570.599 773.013 573.513 774.395 577.245C775.776 580.977 777.639 584.226 779.983 586.994C782.327 589.761 785.99 592.214 790.992 594.332C795.995 596.47 801.771 597.519 808.364 597.519C825.799 597.519 840.095 590.768 851.251 577.245C862.406 563.722 867.995 547.054 867.995 527.262C867.995 507.47 861.088 491.012 847.274 477.279C833.46 463.547 816.862 456.67 797.522 456.67ZM822.241 551.855C815.334 558.669 807.088 562.086 797.522 562.086C787.957 562.086 779.711 558.69 772.804 551.855C765.897 545.041 762.443 536.802 762.443 527.094C762.443 517.387 765.897 509.148 772.804 502.334C779.711 495.52 787.957 492.102 797.522 492.102C807.088 492.102 815.334 495.52 822.241 502.334C829.148 509.148 832.602 517.408 832.602 527.094C832.602 536.781 829.148 545.041 822.241 551.855ZM1566.08 575.588C1564.56 572.989 1561.73 571.5 1558.49 571.5C1553.15 571.5 1549.23 575.421 1549.23 580.893C1549.23 586.365 1552.98 590.202 1558.49 590.202C1561.86 590.202 1564.49 588.671 1566.13 586.008L1563.78 584.122C1562.67 585.925 1560.83 587.078 1558.49 587.078C1555.12 587.078 1552.6 584.52 1552.6 580.83C1552.6 577.14 1555.12 574.498 1558.49 574.498C1560.79 574.498 1562.59 575.609 1563.74 577.412L1566.08 575.567V575.588ZM1558.36 594.521C1550.6 594.521 1545.01 588.797 1545.01 580.893C1545.01 572.989 1550.6 567.349 1558.36 567.349C1566.13 567.349 1571.71 573.031 1571.71 580.893C1571.71 588.755 1566.13 594.521 1558.36 594.521ZM1558.36 597.644C1568.09 597.644 1575 590.684 1575 580.893C1575 571.102 1568.09 564.246 1558.36 564.246C1548.63 564.246 1541.78 571.207 1541.78 580.893C1541.78 590.579 1548.69 597.644 1558.36 597.644ZM934.846 455.559C905.23 455.559 878.104 468.264 878.104 497.008C878.104 552.274 957.325 531.099 957.325 554.308C957.325 562.862 947.572 568.837 932.9 568.837C914.083 568.837 899.139 560.556 890.558 552.253L872.014 578.775C890.558 593.703 910.483 599.217 933.444 599.217C970.805 599.217 992.949 581.815 992.949 554.727C992.949 499.189 913.728 516.758 913.728 497.155C913.728 490.53 922.1 485.938 934.825 485.938C948.932 485.938 962.495 492.018 972.186 499.755L992.112 474.072C973.023 460.255 955.588 455.559 934.825 455.559" fill="url(#paint0_linear_1_14586)"/>
</g>
</g>
<defs>
<linearGradient id="paint0_linear_1_14586" x1="415" y1="527" x2="1575" y2="527" gradientUnits="userSpaceOnUse">
<stop stop-color="#9494CB"/>
<stop offset="0.5" stop-color="#E9B4EE"/>
<stop offset="1" stop-color="#A1DFD0"/>
</linearGradient>
<clipPath id="clip0_1_14586">
<rect width="1920" height="1080" fill="white"/>
</clipPath>
<clipPath id="clip1_1_14586">
<rect width="1160" height="234" fill="white" transform="translate(380 423)"/>
</clipPath>
</defs>
</svg>
